<?xml version="1.0" encoding="UTF-8" standalone="no"?>
<svg width="640" xmlns="http://www.w3.org/2000/svg" xmlns:xlink="http://www.w3.org/1999/xlink" height="480">
 <defs>
  <linearGradient id="linearGradient3335" y2="362.28" xlink:href="#linearGradient4098" gradientUnits="userSpaceOnUse" x2="238.98" y1="354.02" x1="238.98"/>
  <linearGradient id="linearGradient3333" y2="362.28" xlink:href="#linearGradient4098" gradientUnits="userSpaceOnUse" x2="229.44" y1="354.02" x1="229.44"/>
  <linearGradient id="linearGradient3331" y2="362.28" xlink:href="#linearGradient4098" gradientUnits="userSpaceOnUse" x2="176.39" y1="354.02" x1="176.39"/>
  <linearGradient id="linearGradient3329" y2="362.28" xlink:href="#linearGradient4098" gradientUnits="userSpaceOnUse" x2="195.75" y1="354.02" x1="195.75"/>
  <linearGradient id="linearGradient3337" y2="362.28" xlink:href="#linearGradient4098" gradientUnits="userSpaceOnUse" x2="219.61" y1="354.02" x1="219.61"/>
  <linearGradient id="linearGradient4098">
   <stop id="stop4100" stop-color="#ffb142" offset="0"/>
   <stop id="stop4104" stop-color="#c87600" offset="1"/>
  </linearGradient>
  <linearGradient id="linearGradient3211" y2="537.41" xlink:href="#linearGradient4098" gradientUnits="userSpaceOnUse" x2="359.47" gradientTransform="matrix(.64148 0 0 .77805 125.37 117.53)" y1="537.41" x1="346.24"/>
  <linearGradient id="linearGradient3327" y2="362.28" xlink:href="#linearGradient4098" gradientUnits="userSpaceOnUse" x2="186.21" y1="354.02" x1="186.21"/>
  <pattern id="Strips1_1" width="2" patternUnits="userSpaceOnUse" patternTransform="matrix(0 4.4721 -4.4721 0 -50.004 -.0000030322)" height="1">
   <rect id="rect3917" y="-.5" width="1" height="2" x="0"/>
  </pattern>
 </defs>
 <g stroke-width="4" fill-rule="evenodd">
  <g stroke-linejoin="round">
   <g stroke="#000" fill="#3f007f">
    <path id="path3189" stroke-linecap="round" d="m97.8 471.63l9.8995-18.385c-19.799-57.983 0-95.459 0-95.459l-9.8995 18.385s-19.799 37.477 0 95.459z"/>
    <path id="path3187" d="m98.004 471.68h461l-131.84-228.36h-197.16l-132 228.36z"/>
   </g>
   <path id="path4702" fill-opacity=".314" d="m230 243.31l-128.53 222.38h441.53l-128.38-222.38h-184.62z"/>
  </g>
  <g stroke="#000">
   <g stroke-linecap="round">
    <path id="path3191" fill="#fff" d="m107.7 453.95c-19.799-57.983 0-95.459 0-95.459l421.79 0.3536v95.106h-421.79z"/>
    <path id="path4652" opacity=".193" fill="url(#Strips1_1)" d="m107.7 453.95c-19.799-57.983 0-95.459 0-95.459l421.79 0.3536v95.106h-421.79z"/>
   </g>
   <path id="path2415" stroke-linejoin="round" fill="#3f007f" d="m98.004 375.63h461l-131.84-228.36h-197.16l-132 228.36z"/>
  </g>
 </g>
 <g stroke-linecap="round">
  <path id="path4721" fill-opacity=".314" stroke-width="7.77" d="m516.66 321.06c0.044678 25.726-74.094 46.587-165.56 46.587-91.47 0-165.61-20.861-165.56-46.587-0.044662-25.726 74.094-46.587 165.56-46.587 91.47 0 165.61 20.861 165.56 46.587v-0.000031z"/>
  <g stroke-linejoin="round" stroke-width="2.869" stroke="#000">
   <path id="path3226" fill="url(#linearGradient3337)" d="m321 371.15c0 12.716-6.3799 23.024-14.25 23.024s-14.25-10.308-14.25-23.024 6.3799-23.024 14.25-23.024 14.25 10.308 14.25 23.024z"/>
   <path id="path3228" fill="url(#linearGradient3335)" d="m286.5 371.15c0 12.716-6.3799 23.024-14.25 23.024s-14.25-10.308-14.25-23.024 6.3799-23.024 14.25-23.024 14.25 10.308 14.25 23.024z"/>
   <path id="path3230" fill="url(#linearGradient3333)" d="m303.5 371.15c0 12.716-6.3799 23.024-14.25 23.024s-14.25-10.308-14.25-23.024 6.3799-23.024 14.25-23.024 14.25 10.308 14.25 23.024z"/>
   <path id="path3224" fill="url(#linearGradient3331)" d="m398 371.15c0 12.716-6.38 23.024-14.25 23.024-7.8701 0-14.25-10.308-14.25-23.024s6.3799-23.024 14.25-23.024c7.87 0 14.25 10.308 14.25 23.024z"/>
   <path id="path3220" fill="url(#linearGradient3329)" d="m363.5 371.15c0 12.716-6.38 23.024-14.25 23.024-7.8701 0-14.25-10.308-14.25-23.024s6.3799-23.024 14.25-23.024c7.87 0 14.25 10.308 14.25 23.024z"/>
   <path id="path3222" fill="url(#linearGradient3327)" d="m380.5 371.15c0 12.716-6.38 23.024-14.25 23.024-7.8701 0-14.25-10.308-14.25-23.024s6.3799-23.024 14.25-23.024c7.87 0 14.25 10.308 14.25 23.024z"/>
  </g>
  <path id="path3250" fill-opacity=".314" stroke-width="6.429" d="m272.25 348.12c-5.8064 0-10.78 5.6303-13 13.688 18.971 5.0743 39.814 8.0342 61.719 8.4375-0.29837-12.285-6.5429-22.125-14.219-22.125-3.3009 0-6.3333 1.8275-8.75 4.875-2.4167-3.0475-5.4491-4.875-8.75-4.875-3.1858 0-6.1261 1.7048-8.5 4.5625-2.374-2.8577-5.3142-4.5625-8.5-4.5625zm77 0c-7.6562 0-13.891 9.7905-14.219 22.031 21.881-0.70435 42.616-3.9836 61.438-9.3438-2.3472-7.5156-7.1571-12.688-12.719-12.688-3.3009 0-6.3333 1.8275-8.75 4.875-2.4167-3.0475-5.4491-4.875-8.75-4.875-3.1858 0-6.1261 1.7048-8.5 4.5625-2.374-2.8577-5.3142-4.5625-8.5-4.5625z"/>
  <g stroke="#000">
   <path id="path2385" stroke-width="5" fill="#784421" d="m491.66 195.06c0.044678 91.47-74.094 165.64-165.56 165.64-91.47 0-165.61-74.175-165.56-165.64-0.044662-91.47 74.094-165.64 165.56-165.64 91.47 0 165.61 74.175 165.56 165.64v-0.000061z"/>
   <path id="path3167" stroke-linejoin="round" d="m407.94 277.85c-26.5-4.9236-2.2474 21.631-6.3107 31.233-16.063-7.8984-9.9427 18.25-17.207 25.514-13.764-0.73608-15.912 13.143-25.514 17.207-11.602-6.4366-20.156 6.3107-31.233 6.3107-11.076 0-17.631-12.247-31.233-6.3107-9.6016-4.0634-11.75-17.443-25.514-17.207-7.2639-7.2639-6.1432-34.912-17.207-25.514-4.0634-9.6016 14.689-38.156-6.3107-31.233 0-11.076 22.247-31.631 6.3107-31.233 4.0634-9.6016 24.443-16.75 17.207-25.514 14.528-14.528 34.594-23.517 56.747-23.517s42.219 8.9896 56.747 23.517c-10.736 5.2639 13.143 15.912 17.207 25.514-17.937-0.89842 6.3107 20.156 6.3107 31.233z" stroke-width="4.412" fill="#fff"/>
  </g>
 </g>
 <g stroke-width="5">
  <path id="path3211" fill-rule="evenodd" fill-opacity=".314" d="m472.38 117.5c1.9806 10.232 3.0312 20.785 3.0312 31.594 0 3.7299-0.13174 7.4251-0.37497 11.094-3.6726-0.18282-7.5783 0.019043-11.75 0.625-35.215 7.4987-20.173 51.664-29.344 97.875-30.342 34.329-74.709 55.969-124.09 55.969-30.373 0-58.832-8.2072-83.312-22.5-23.679-55.443 8.0762-115.66-33.656-126.06-46.11-8.3254-63.97 34.456-34.156 98.562 16.461 35.394 43.723 52.78 63.781 59.531 28.363 22.8 64.392 36.438 103.59 36.438 45.95 0 87.557-18.739 117.56-49 17.454-8.7175 36.862-24.595 50.344-51.156 25.212-49.671 20.385-87.078-5.4688-97.438-3.1699-16.136-8.666-31.442-16.156-45.531z"/>
  <g stroke="#000">
   <g fill="#784421" fill-rule="evenodd">
    <path id="path3169" d="m192.74 158.04c48.111 17.3-14.163 94.143 37.819 161.19 9.6084 12.393-57.868 2.0908-81.723-66.585-23.198-66.786-1.1324-107.54 43.904-94.607z"/>
    <path id="path3800" d="m459.18 158.04c-48.111 17.3 14.163 94.143-37.819 161.19-9.6084 12.393 57.868 2.0908 81.723-66.585 23.198-66.786 1.1323-107.54-43.904-94.607z"/>
    <path id="path2413" stroke-linejoin="round" stroke-linecap="round" d="m441.51 149c13.389-4.609 27.221 7.5839 29.865 14.18-13.512-3.4523-19.72-4.4258-23.218-1.3807 1.5067 3.3714 17.408 6.7419 22.337 28.871-12.429-8.6166-22.304-18.576-26.272-14.483 2.8816 5.0339 6.1995 14.497 3.9636 23.881-7.1415-9.4244-14.439-19.378-21.142-19.648"/>
   </g>
   <path id="path2387" stroke-linecap="round" fill="#fff" d="m280.15 67.264c-31.234 0-56.603 29.331-56.603 65.472 0 36.14 25.369 65.472 56.603 65.472 18.356 0 34.644-10.141 44.985-25.829 10.34 15.7 26.664 25.829 45.027 25.829 31.234 0 56.603-29.331 56.603-65.472 0-36.14-25.369-65.472-56.603-65.472-18.361 0-34.688 10.133-45.027 25.83-10.341-15.685-26.631-25.83-44.985-25.83z"/>
  </g>
  <path id="path3407" fill-rule="evenodd" fill-opacity=".314" d="m326.85 178.17c-9.288 0-19.384 10.327-18.98 16.85 0.40381 6.5225 16.557 33.699 20.191 33.699 3.6344 0 17.768-26.633 17.364-34.243-0.40387-7.6096-12.519-16.85-18.576-16.306z"/>
 </g>
 <g stroke="#000">
  <path id="path2391" d="m324.73 167.56c-9.288 0-19.384 9.3062-18.98 15.184 0.40381 5.8776 16.557 30.368 20.191 30.368 3.6344 0 17.768-24 17.364-30.857-0.40378-6.8572-12.519-15.184-18.576-14.694z" fill-rule="evenodd" stroke-width="5" fill="url(#linearGradient3211)"/>
  <path id="path2411" stroke-width="3.169" stroke-linecap="round" d="m321.56 137.16c0.000061 9.0504-7.3367 16.387-16.387 16.387-9.0504 0-16.387-7.3368-16.387-16.387 0-9.0504 7.3367-16.387 16.387-16.387s16.387 7.3367 16.387 16.387h-0.000061z"/>
  <g stroke-linejoin="round" stroke-width="5" fill-rule="evenodd">
   <path id="path3193" stroke-linecap="round" fill="#784421" d="m210.15 149c-13.389-4.609-27.221 7.5839-29.865 14.18 13.512-3.4523 19.72-4.4258 23.218-1.3807-1.5067 3.3714-17.408 6.7419-22.337 28.871 12.429-8.6166 22.304-18.576 26.272-14.483-2.8816 5.0339-6.1995 14.497-3.9636 23.881 7.1415-9.4244 14.439-19.378 21.142-19.648"/>
   <g fill="#fff">
    <path id="path3283" d="m338.97 78.283c13.276-32.16 35.666-36.513 35.666-36.513s-12.453 16.775-1.174 12.109c17.465-7.2259 72.997 15.418 72.997 15.418s-73.574-17.126-107.49 8.9861z"/>
    <path id="path3285" d="m308.53 75.283c-13.276-32.16-35.666-36.513-35.666-36.513s12.453 16.775 1.174 12.109c-17.465-7.2259-72.997 15.418-72.997 15.418s73.574-17.126 107.49 8.9862z"/>
   </g>
  </g>
  <path id="path3301" stroke-width="3.169" stroke-linecap="round" d="m363.06 137.16c0.000061 9.0504-7.3367 16.387-16.387 16.387-9.0504 0-16.387-7.3368-16.387-16.387 0-9.0504 7.3368-16.387 16.387-16.387 9.0504 0 16.387 7.3367 16.387 16.387h-0.000061z"/>
 </g>
 <g stroke-linejoin="round" stroke-width="5" fill="#fff">
  <path id="path3341" d="m303.5 131.43c0 2.3472-1.9028 4.25-4.25 4.25s-4.25-1.9028-4.25-4.25 1.9028-4.25 4.25-4.25 4.25 1.9028 4.25 4.25z"/>
  <path id="path3343" d="m345 131.43c0 2.3472-1.9028 4.25-4.25 4.25s-4.25-1.9028-4.25-4.25 1.9028-4.25 4.25-4.25 4.25 1.9028 4.25 4.25z"/>
 </g>
 <g fill-rule="evenodd">
  <g fill-opacity=".314">
   <g stroke-width="5">
    <path id="path3200" d="m474.94 155.66c-0.41263-0.000595-0.83166 0.020538-1.25 0.03125 16.212 13.064 23.073 43.297 14.781 85.344-11.023 55.895-53.577 80.008-67.719 81.281 4.5921 6.5264 60.971-8.1258 82.344-69.656 20.299-58.438 5.9208-96.95-28.156-97z"/>
    <path id="path3205" d="m141.07 187.84c-3.4518 16.506-1.2985 38.673 7.7812 64.812 23.855 68.676 91.327 78.987 81.719 66.594-4.1089-5.2998-7.5204-10.674-10.312-16.062-18.952-4.5414-54.048-24.376-69.906-70.031-5.8796-16.927-8.8539-32.18-9.2812-45.312zm71.281 6.3438c-0.88286 8.5361-1.8562 17.612-2.2812 27.125 0.9933-9.7906 2.0794-18.941 2.2812-27.125z"/>
   </g>
   <path id="path3216" stroke-linejoin="round" stroke-width="4" d="m207.94 417.18h-56.5s-12.828 5.5333 10.578 34.583c-0.10393-19.367 14.853-20.75 14.853-20.75s19.604 19.367 40.863 27.667c-25.535-33.2-7.7294-39.425-9.7941-41.5z"/>
  </g>
  <path id="path2424" stroke-linejoin="round" d="m206.59 417.68h-56.5s-17 4-15.5 25c14.5-14 30.5-15 30.5-15s5 14 20 20c-0.5-24 22-28.5 21.5-30z" stroke="#000" stroke-width="4" fill="#007f00"/>
 </g>
</svg>
